<?xml version="1.0" encoding="UTF-8"?>
<svg id="Layer_2" data-name="Layer 2" xmlns="http://www.w3.org/2000/svg" viewBox="0 0 170.94 184.23">
  <defs>
    <style>
      .cls-1 {
        fill: #4d194d;
        strokeWidth: 0px;
      }
    </style>
  </defs>
  <g id="Layer_1-2" data-name="Layer 1">
    <g>
      <path class="cls-1" d="m170.94,117.34v43.46c-13.44,0-27.01-2.08-40.03-6.01-16.44-4.97-32-12.89-45.28-23.29-28.12-22.02-43.62-53.28-43.62-88.04H0V0h170.57v43.46h-85.11c0,50.4,51,73.88,85.47,73.88Z"/>
      <path class="cls-1" d="m81.17,137.2c13.47,10.55,29.17,18.67,45.78,23.92l-14.44,23.11c-29.96-18.72-47.9-37.18-58.15-59.85-4.67-10.31-7.65-21.12-9.49-32.95,7.83,17.51,20.09,33.09,36.3,45.77Z"/>
    </g>
  </g>
</svg>